<svg width="652" height="514" viewBox="0 0 652 514" fill="none" xmlns="http://www.w3.org/2000/svg">
<path d="M640.882 211.182C624.908 200.433 582.942 195.843 552.436 204.064C550.799 173.686 535.115 148.083 506.45 125.743L495.842 118.625L488.77 129.306C474.869 150.397 469.008 178.509 471.081 204.064C472.718 219.81 478.192 237.502 488.77 250.342C449.061 273.37 412.453 268.141 250.343 268.141H0.0583462C-0.668212 304.736 5.21206 375.117 49.9874 432.415C54.9377 438.748 60.353 444.868 66.2429 450.766C102.648 487.205 157.654 513.932 239.9 514C365.381 514.116 472.883 446.311 538.283 282.386C559.799 282.734 616.606 286.24 644.409 232.544C645.087 231.643 651.481 218.309 651.481 218.309L640.882 211.191V211.182ZM163.398 177.725H93.019V248.076H163.398V177.725ZM254.315 177.725H183.936V248.076H254.315V177.725ZM345.241 177.725H274.862V248.076H345.241V177.725ZM436.167 177.725H365.788V248.076H436.167V177.725ZM72.472 177.725H2.09271V248.076H72.472V177.725ZM163.398 88.8671H93.019V159.219H163.398V88.8671ZM254.315 88.8671H183.936V159.219H254.315V88.8671ZM345.241 88.8671H274.862V159.219H345.241V88.8671ZM345.241 0H274.862V70.3519H345.241V0Z" fill="#1D63ED"/>
</svg>
