<svg width="2261" height="514" viewBox="0 0 2261 514" fill="none" xmlns="http://www.w3.org/2000/svg">
<g clip-path="url(#clip0_206_32)">
<path d="M640.882 211.182C624.908 200.433 582.942 195.843 552.436 204.064C550.799 173.686 535.115 148.083 506.45 125.743L495.842 118.625L488.77 129.306C474.869 150.397 469.008 178.509 471.081 204.064C472.718 219.81 478.192 237.502 488.77 250.342C449.061 273.37 412.453 268.141 250.343 268.141H0.0583462C-0.668212 304.736 5.21206 375.117 49.9874 432.415C54.9377 438.748 60.353 444.868 66.2429 450.766C102.648 487.205 157.654 513.932 239.9 514C365.381 514.116 472.883 446.311 538.283 282.386C559.799 282.734 616.606 286.24 644.409 232.544C645.087 231.643 651.481 218.309 651.481 218.309L640.882 211.191V211.182ZM163.398 177.725H93.019V248.076H163.398V177.725ZM254.315 177.725H183.936V248.076H254.315V177.725ZM345.241 177.725H274.862V248.076H345.241V177.725ZM436.167 177.725H365.788V248.076H436.167V177.725ZM72.472 177.725H2.09271V248.076H72.472V177.725ZM163.398 88.8671H93.019V159.219H163.398V88.8671ZM254.315 88.8671H183.936V159.219H254.315V88.8671ZM345.241 88.8671H274.862V159.219H345.241V88.8671ZM345.241 0H274.862V70.3519H345.241V0Z" fill="#1D63ED"/>
<path d="M2256.63 406.037C2256.63 424.378 2242.23 438.777 2223.49 438.777C2204.76 438.777 2190.15 424.378 2190.15 406.037C2190.15 387.696 2204.94 373.693 2223.49 373.693C2242.04 373.693 2256.63 388.093 2256.63 406.037ZM2198.44 406.037C2198.44 420.436 2209.1 431.873 2223.69 431.873C2238.29 431.873 2248.36 420.436 2248.36 406.24C2248.36 392.044 2237.9 380.201 2223.51 380.201C2209.12 380.201 2198.45 391.841 2198.45 406.037H2198.44ZM2218.38 423.003H2210.88V390.659C2213.82 390.068 2217.98 389.671 2223.3 389.671C2229.42 389.671 2232.17 390.659 2234.54 392.044C2236.33 393.419 2237.7 395.985 2237.7 399.142C2237.7 402.696 2234.94 405.456 2231.01 406.637V407.034C2234.15 408.206 2235.93 410.579 2236.92 414.917C2237.9 419.846 2238.49 421.821 2239.29 423.003H2231.2C2230.21 421.821 2229.61 418.868 2228.63 415.11C2228.04 411.566 2226.07 409.988 2221.92 409.988H2218.38V423.012V423.003ZM2218.56 404.662H2222.11C2226.25 404.662 2229.6 403.287 2229.6 399.936C2229.6 396.973 2227.44 394.988 2222.7 394.988C2220.73 394.988 2219.34 395.191 2218.56 395.404V404.662Z" fill="#1D63ED"/>
<path d="M985.368 78.7087C980.727 74.1768 975.157 71.8721 968.482 71.8721C961.808 71.8721 956.073 74.1768 951.607 78.7087C947.131 83.2407 944.942 89.0509 944.942 95.9747V211.598C921.983 192.628 895.488 183.06 865.35 183.06C830.32 183.06 800.367 195.707 775.547 221.088C750.728 246.382 738.406 276.982 738.406 312.87C738.406 348.758 750.815 379.271 775.547 404.652C800.367 429.945 830.243 442.68 865.35 442.68C900.457 442.68 930.004 430.033 955.153 404.652C979.972 379.61 992.294 349.019 992.294 312.87V95.9747C992.294 89.0509 990.018 83.2407 985.368 78.7087ZM938.694 344.148V344.322C934.557 354.151 928.9 362.779 921.731 370.129C914.562 377.566 906.115 383.377 896.495 387.734C886.788 392.092 876.491 394.232 865.437 394.232C854.384 394.232 843.834 392.092 834.127 387.734C824.421 383.377 816.06 377.566 808.979 370.217C801.888 362.867 796.24 354.238 792.103 344.41C787.967 334.493 785.855 323.987 785.855 312.87C785.855 301.753 787.967 291.246 792.103 281.33C796.24 271.414 801.897 262.873 808.979 255.523C816.07 248.173 824.508 242.363 834.127 238.005C843.834 233.648 854.219 231.508 865.437 231.508C876.655 231.508 886.788 233.648 896.495 238.005C906.202 242.363 914.562 248.173 921.731 255.61C928.9 263.047 934.557 271.675 938.694 281.417C942.83 291.246 944.942 301.675 944.942 312.783C944.942 323.89 942.83 334.406 938.694 344.148Z" fill="#1D63ED"/>
<path d="M2034.14 263.047C2027.98 247.66 2018.59 233.735 2006.28 221.253L2006.11 221.166C1981.04 195.872 1951.07 183.138 1916.31 183.138C1881.55 183.138 1851.32 195.785 1826.5 221.166C1801.68 246.459 1789.37 277.06 1789.37 312.947C1789.37 348.835 1801.78 379.348 1826.5 404.729C1851.32 430.023 1881.2 442.757 1916.31 442.757C1948.2 442.757 1975.8 432.25 1999.27 411.227C2003.82 406.443 2006.11 400.633 2006.11 393.874C2006.11 387.115 2003.92 381.14 1999.44 376.608C1994.97 372.076 1989.32 369.771 1982.56 369.771C1976.66 369.946 1971.42 371.911 1966.96 375.843C1959.87 381.992 1952.18 386.698 1943.83 389.778C1935.47 392.857 1926.36 394.397 1916.41 394.397C1907.62 394.397 1899.18 393.031 1891.17 390.213C1883.14 387.396 1875.64 383.541 1868.97 378.506C1862.21 373.461 1856.39 367.486 1851.42 360.388C1846.44 353.377 1842.64 345.601 1840.11 337.06H2019.64C2026.29 337.06 2031.86 334.755 2036.51 330.223C2041.16 325.691 2043.44 319.881 2043.44 312.957C2043.44 295.013 2040.3 278.348 2034.16 263.047H2034.14ZM1839.93 288.854C1842.38 280.391 1846.09 272.615 1851.07 265.526C1856.06 258.515 1861.96 252.453 1868.71 247.408C1875.55 242.363 1882.97 238.519 1891.15 235.701C1899.33 232.883 1907.68 231.517 1916.31 231.517C1924.94 231.517 1933.27 232.883 1941.36 235.701C1949.47 238.519 1956.91 242.363 1963.57 247.408C1970.33 252.453 1976.23 258.428 1981.21 265.526C1986.26 272.537 1990.08 280.313 1992.7 288.854H1839.92H1839.93Z" fill="#1D63ED"/>
<path d="M2254.76 199.377C2250.54 195.194 2245.22 191.94 2238.81 189.548C2232.39 187.156 2225.39 185.529 2217.71 184.59C2210.11 183.651 2202.93 183.225 2196.28 183.225C2181.16 183.225 2166.98 185.704 2153.65 190.662C2140.31 195.62 2127.99 202.708 2116.68 211.937V207.327C2116.68 200.665 2114.4 195.019 2109.75 190.323C2105.12 185.626 2099.63 183.234 2093.14 183.234C2086.65 183.234 2080.89 185.626 2076.26 190.323C2071.61 195.019 2069.33 200.752 2069.33 207.327V418.674C2069.33 425.336 2071.61 430.982 2076.26 435.678C2080.89 440.375 2086.46 442.767 2093.14 442.767C2099.81 442.767 2105.2 440.375 2109.75 435.678C2114.4 430.982 2116.68 425.249 2116.68 418.674V312.957C2116.68 301.675 2118.79 291.081 2122.92 281.165C2127.06 271.249 2132.72 262.708 2139.89 255.358C2147.08 248.008 2155.51 242.198 2165.12 238.005C2174.83 233.735 2185.14 231.595 2196.2 231.595C2207.26 231.595 2217.71 233.56 2227.26 237.405C2231.05 239.119 2234.35 239.971 2237.22 239.971C2240.51 239.971 2243.63 239.371 2246.5 238.092C2249.37 236.814 2251.9 235.1 2254.02 232.883C2256.13 230.665 2257.8 228.099 2259.07 225.107C2260.34 222.201 2261.02 219.035 2261.02 215.617C2261.02 208.954 2258.91 203.57 2254.69 199.377H2254.77H2254.76Z" fill="#1D63ED"/>
<path d="M1263.72 263.135C1257.56 247.834 1248.35 233.822 1235.95 221.175C1210.89 195.881 1180.93 183.147 1146.15 183.147C1111.37 183.147 1081.17 195.794 1056.35 221.175C1031.53 246.469 1019.22 277.069 1019.22 312.957C1019.22 348.845 1031.63 379.358 1056.35 404.739C1081.17 430.033 1111.04 442.767 1146.15 442.767C1181.26 442.767 1210.8 430.12 1235.95 404.739C1260.77 379.697 1273.09 349.106 1273.09 312.957C1272.92 295.013 1269.8 278.435 1263.73 263.135H1263.72ZM1219.49 344.148V344.323C1215.36 354.152 1209.7 362.78 1202.53 370.13C1195.36 377.567 1186.92 383.377 1177.3 387.735C1167.68 392.092 1157.29 394.232 1146.24 394.232C1135.18 394.232 1124.63 392.092 1114.93 387.735C1105.22 383.377 1096.86 377.567 1089.78 370.217C1082.69 362.867 1077.04 354.239 1072.9 344.41C1068.77 334.494 1066.66 323.987 1066.66 312.87C1066.66 301.753 1068.77 291.246 1072.9 281.33C1077.04 271.414 1082.7 262.873 1089.78 255.523C1096.87 248.173 1105.31 242.363 1114.93 238.005C1124.63 233.648 1135.02 231.508 1146.24 231.508C1157.46 231.508 1167.59 233.648 1177.3 238.005C1187 242.363 1195.36 248.173 1202.53 255.61C1209.7 263.047 1215.36 271.676 1219.49 281.417C1223.63 291.246 1225.74 301.676 1225.74 312.783C1225.74 323.89 1223.63 334.407 1219.49 344.148Z" fill="#1D63ED"/>
<path d="M1771.46 207.241C1771.46 203.997 1770.79 200.917 1769.53 198.012C1768.26 195.107 1766.57 192.463 1764.46 190.236C1762.35 188.018 1759.82 186.217 1756.95 185.026C1754.09 183.835 1750.97 183.148 1747.67 183.148C1742.94 183.148 1738.72 184.348 1735.01 186.827L1599.46 276.992V96.1494C1599.46 89.3127 1597.19 83.5896 1592.55 78.8834C1587.91 74.1868 1582.42 71.7949 1575.92 71.7949C1569.42 71.7949 1563.69 74.1868 1559.04 78.8834C1554.4 83.58 1552.12 89.3127 1552.12 96.1494V418.335C1552.12 424.997 1554.4 430.73 1559.04 435.514C1563.68 440.298 1569.25 442.69 1575.92 442.69C1582.6 442.69 1587.99 440.298 1592.55 435.514C1597.19 430.73 1599.46 424.997 1599.46 418.335V334.668L1627.15 316.124L1731.89 436.366C1736.12 440.549 1741.43 442.602 1747.76 442.602C1751.05 442.602 1754.17 442.002 1757.04 440.724C1759.91 439.523 1762.45 437.731 1764.55 435.514C1766.66 433.296 1768.35 430.73 1769.61 427.738C1770.88 424.833 1771.55 421.666 1771.55 418.509C1771.55 412.186 1769.36 406.54 1764.96 401.592L1667.48 289.387L1762.43 226.317C1768.5 222.134 1771.45 215.723 1771.45 207.086V207.26L1771.46 207.241Z" fill="#1D63ED"/>
<path d="M1370.15 255.359C1377.41 248.009 1385.86 242.199 1395.56 238.006C1405.27 233.735 1415.57 231.595 1426.62 231.595C1436.58 231.595 1445.78 233.309 1454.31 236.718C1462.75 240.136 1470.85 245.182 1478.53 251.757C1483.08 255.427 1488.23 257.306 1493.97 257.306C1500.81 257.306 1506.38 255.001 1510.85 250.382C1515.33 245.763 1517.52 239.952 1517.52 233.029C1517.52 226.105 1514.82 219.694 1509.33 214.746C1486.03 193.723 1458.44 183.206 1426.62 183.206C1391.59 183.206 1361.64 195.853 1336.82 221.234C1312 246.528 1299.69 277.128 1299.69 313.016C1299.69 348.903 1312.1 379.417 1336.82 404.798C1361.64 430.091 1391.51 442.826 1426.62 442.826C1458.36 442.826 1485.96 432.319 1509.33 411.286C1514.31 406.163 1516.85 400.266 1516.85 393.429C1516.85 386.592 1514.65 380.695 1510.18 376.163C1505.71 371.631 1500.06 369.326 1493.31 369.326C1487.57 369.501 1482.59 371.205 1478.37 374.449C1470.78 381.111 1462.84 386.069 1454.32 389.401C1445.88 392.732 1436.68 394.359 1426.63 394.359C1415.58 394.359 1405.28 392.219 1395.57 387.948C1385.87 383.678 1377.43 377.867 1370.16 370.605C1362.91 363.342 1357.16 354.627 1353.03 344.798C1348.89 334.882 1346.78 324.288 1346.78 313.006C1346.78 301.725 1348.89 291.131 1353.03 281.215C1357.16 271.298 1362.9 262.757 1370.16 255.408V255.32L1370.15 255.359Z" fill="#1D63ED"/>
</g>
<defs>
<clipPath id="clip0_206_32">
<rect width="2261" height="514" fill="white"/>
</clipPath>
</defs>
</svg>
