<svg width="71" height="71" viewBox="0 0 71 71" fill="none" xmlns="http://www.w3.org/2000/svg">
<g clip-path="url(#clip0_66_21)">
<path d="M4.76254 18.5491C7.93703 13.11 12.243 8.80384 17.6816 5.62967C23.1211 2.45535 29.0593 0.868591 35.5006 0.868591C41.941 0.868591 47.8812 2.45583 53.3195 5.62967C58.7586 8.80367 63.0644 13.11 66.2389 18.5491C69.4129 23.988 71 29.9274 71 36.3671C71 44.1025 68.7431 51.0584 64.2283 57.2366C59.714 63.4153 53.8821 67.6907 46.7332 70.0633C45.901 70.2177 45.285 70.1091 44.8845 69.7401C44.4838 69.3707 44.2837 68.908 44.2837 68.354C44.2837 68.2615 44.2916 67.4298 44.307 65.858C44.3228 64.2861 44.3303 62.9148 44.3303 61.7448L45.3935 61.9287C46.0713 62.0529 46.9265 62.1055 47.9589 62.0906C48.9908 62.0762 50.0621 61.9681 51.1713 61.767C52.2809 61.5677 53.313 61.1055 54.2684 60.3813C55.2232 59.6571 55.9011 58.7092 56.3018 57.539L56.764 56.4754C57.0721 55.7672 57.5572 54.9806 58.2198 54.1183C58.8825 53.2552 59.5525 52.6701 60.2304 52.362L60.554 52.1304C60.7697 51.9764 60.9698 51.7907 61.1548 51.5752C61.3397 51.3597 61.4782 51.1441 61.5706 50.9281C61.6632 50.712 61.5865 50.5347 61.3396 50.3956C61.0927 50.2566 60.6465 50.1891 59.9991 50.1891L59.075 50.3272C58.4586 50.4507 57.6962 50.8196 56.7869 51.4363C55.878 52.0525 55.1308 52.8536 54.5452 53.8392C53.8361 55.103 52.9818 56.0659 51.9798 56.7286C50.9786 57.3912 49.9692 57.722 48.9525 57.722C47.9358 57.722 47.0576 57.6449 46.3178 57.4916C45.5787 57.3375 44.8853 57.1058 44.2379 56.7979C43.9605 54.7324 43.2054 53.1456 41.9732 52.0365C43.7295 51.8519 45.3085 51.5739 46.711 51.2043C48.1127 50.8342 49.5612 50.2336 51.0555 49.4008C52.5506 48.5691 53.7909 47.5364 54.7767 46.3043C55.7627 45.0716 56.5719 43.4533 57.2031 41.4508C57.8347 39.4475 58.1505 37.1366 58.1505 34.5174C58.1505 30.7881 56.933 27.6145 54.4986 24.995C55.639 22.1913 55.5313 19.0482 54.1753 15.5661C53.2816 15.2885 51.9563 15.4968 50.2001 16.1899C48.4435 16.8833 47.1574 17.4773 46.3404 17.9698C45.5235 18.4622 44.8689 18.8794 44.3758 19.2177C41.5094 18.4168 38.5514 18.0163 35.5009 18.0163C32.4504 18.0163 29.4917 18.4168 26.6252 19.2177L24.8688 18.1089C23.6676 17.369 22.2493 16.691 20.617 16.0747C18.9838 15.4586 17.7349 15.289 16.8717 15.5666C15.4855 19.0489 15.362 22.1918 16.5027 24.9955C14.0684 27.615 12.8505 30.7894 12.8505 34.5179C12.8505 37.137 13.1675 39.4552 13.798 41.4739C14.4294 43.493 15.2456 45.1097 16.2467 46.3275C17.2491 47.5451 18.4973 48.5698 19.9916 49.4013C21.4862 50.2334 22.9352 50.8341 24.3369 51.2042C25.7393 51.5742 27.3183 51.8524 29.0745 52.0373C27.4727 53.4234 26.6716 55.6115 26.6716 58.6004V68.3527C26.6716 68.9067 26.479 69.3692 26.0933 69.7388C25.7082 70.1078 25.0999 70.2164 24.2678 70.0618C17.1179 67.6895 11.286 63.414 6.77185 57.2353C2.25815 51.0572 0.000488281 44.1012 0.000488281 36.3658C0.00210571 29.9269 1.59 23.988 4.76254 18.5491Z" fill="#0B467E"/>
</g>
<defs>
<clipPath id="clip0_66_21">
<rect width="71" height="71" fill="white" transform="matrix(-1 0 0 1 71 0)"/>
</clipPath>
</defs>
</svg>
