<svg width="63" height="63" viewBox="0 0 63 63" fill="none" xmlns="http://www.w3.org/2000/svg">
<path d="M1.96875 5.90625V57.0938C1.96875 59.2594 3.74062 61.0312 5.90625 61.0312H57.0938C59.2594 61.0312 61.0312 59.2594 61.0312 57.0938V5.90625C61.0312 3.74062 59.2594 1.96875 57.0938 1.96875H5.90625C3.74062 1.96875 1.96875 3.74062 1.96875 5.90625ZM18.8016 51.1875H11.8125V24.0187H18.8016V51.1875ZM15.3563 18.6047C13.3875 18.6047 11.8125 17.1281 11.8125 15.2578C11.8125 13.3875 13.3875 11.9109 15.3563 11.9109C17.325 11.9109 18.9 13.3875 18.9 15.2578C18.8016 17.1281 17.2266 18.6047 15.3563 18.6047ZM51.1875 51.1875H44.1984V37.6031C44.1984 34.7484 44.1 32.8781 43.8047 31.9922C43.5094 31.1063 43.0172 30.5156 42.4266 30.0234C41.7375 29.5312 40.95 29.3344 40.0641 29.3344C38.8828 29.3344 37.8 29.6297 36.9141 30.3187C35.9297 31.0078 35.3391 31.8937 34.9453 32.9766C34.5516 34.0594 34.4531 36.1266 34.4531 39.0797V51.1875H25.9875V24.0187H32.9766V28.0547C35.3391 25.0031 38.3906 23.4281 42.0328 23.4281C43.6078 23.4281 45.0844 23.7234 46.4625 24.3141C47.7422 24.9047 48.825 25.5938 49.5141 26.4797C50.2031 27.3656 50.6953 28.35 50.8922 29.5312C51.1875 30.6141 51.2859 32.2875 51.2859 34.3547V51.1875H51.1875Z" fill="#0B467E"/>
</svg>
