<svg width="446" height="414" viewBox="0 0 446 414" fill="none" xmlns="http://www.w3.org/2000/svg">
<g filter="url(#filter0_d_218_2)">
<path d="M8 31.8332C8 14.2522 22.2522 0 39.8332 0H405.915C423.496 0 437.748 14.2522 437.748 31.8332V366.082C437.748 383.663 423.496 397.915 405.915 397.915H39.8332C22.2522 397.915 8 383.663 8 366.082V31.8332Z" fill="white"/>
</g>
<path fill-rule="evenodd" clip-rule="evenodd" d="M121.315 57.56C121.315 55.2238 121.315 52.8891 121.315 50.5529C118.508 50.5529 115.702 50.5529 112.895 50.5529C113.409 48.8782 114.578 47.9448 116.403 47.75C119.318 48.4745 122.125 49.4093 124.823 50.5529C130.604 48.9286 136.452 48.9286 142.365 50.5529C142.604 52.4056 142.137 54.041 140.962 55.4579C134.167 56.4277 127.618 57.1284 121.315 57.56Z" fill="#262E34"/>
<path d="M362.027 346.07V340.722L361.518 339.551V329.975C361.518 328.278 360.991 326.953 359.939 326.003C358.92 325.052 357.341 324.576 355.202 324.576C353.742 324.576 352.299 324.814 350.873 325.29C349.481 325.731 348.292 326.342 347.307 327.123L344.455 321.571C345.949 320.519 347.749 319.704 349.854 319.127C351.959 318.549 354.099 318.261 356.272 318.261C360.448 318.261 363.691 319.245 366 321.215C368.309 323.184 369.463 326.257 369.463 330.434V346.07H362.027ZM353.674 346.478C351.535 346.478 349.701 346.121 348.173 345.408C346.645 344.661 345.474 343.659 344.659 342.403C343.844 341.147 343.437 339.738 343.437 338.176C343.437 336.546 343.827 335.12 344.608 333.897C345.423 332.675 346.696 331.724 348.428 331.045C350.16 330.332 352.418 329.975 355.202 329.975H362.486V334.61H356.068C354.2 334.61 352.91 334.916 352.197 335.527C351.518 336.138 351.178 336.902 351.178 337.819C351.178 338.838 351.569 339.653 352.35 340.264C353.165 340.841 354.268 341.13 355.66 341.13C356.985 341.13 358.173 340.824 359.226 340.213C360.278 339.568 361.042 338.634 361.518 337.412L362.74 341.079C362.163 342.844 361.11 344.186 359.582 345.102C358.054 346.019 356.085 346.478 353.674 346.478Z" fill="black"/>
<path d="M334.29 346.476C331.064 346.476 328.551 345.661 326.752 344.031C324.952 342.367 324.052 339.906 324.052 336.646V312.605H331.998V336.544C331.998 337.699 332.303 338.598 332.915 339.243C333.526 339.855 334.358 340.16 335.41 340.16C336.667 340.16 337.736 339.821 338.619 339.142L340.758 344.744C339.943 345.321 338.959 345.763 337.804 346.069C336.684 346.34 335.512 346.476 334.29 346.476ZM319.825 325.39V319.278H338.823V325.39H319.825Z" fill="black"/>
<path d="M304.116 346.478C301.807 346.478 299.787 345.968 298.055 344.95C296.323 343.931 294.965 342.386 293.98 340.315C293.03 338.21 292.554 335.561 292.554 332.369C292.554 329.143 293.013 326.495 293.93 324.424C294.846 322.352 296.171 320.807 297.902 319.789C299.634 318.77 301.705 318.261 304.116 318.261C306.697 318.261 309.006 318.855 311.043 320.043C313.114 321.198 314.744 322.828 315.933 324.933C317.155 327.038 317.766 329.517 317.766 332.369C317.766 335.255 317.155 337.751 315.933 339.856C314.744 341.962 313.114 343.591 311.043 344.746C309.006 345.9 306.697 346.478 304.116 346.478ZM287.919 355.951V318.668H295.508V324.271L295.356 332.42L295.865 340.519V355.951H287.919ZM302.741 339.958C304.065 339.958 305.237 339.653 306.255 339.041C307.308 338.43 308.14 337.564 308.751 336.444C309.396 335.289 309.719 333.931 309.719 332.369C309.719 330.773 309.396 329.415 308.751 328.295C308.14 327.174 307.308 326.308 306.255 325.697C305.237 325.086 304.065 324.78 302.741 324.78C301.417 324.78 300.228 325.086 299.176 325.697C298.123 326.308 297.291 327.174 296.68 328.295C296.069 329.415 295.763 330.773 295.763 332.369C295.763 333.931 296.069 335.289 296.68 336.444C297.291 337.564 298.123 338.43 299.176 339.041C300.228 339.653 301.417 339.958 302.741 339.958Z" fill="black"/>
<path d="M269.592 318.261C271.766 318.261 273.684 318.702 275.348 319.585C277.046 320.434 278.37 321.758 279.321 323.558C280.305 325.323 280.798 327.598 280.798 330.383V346.07H272.852V331.605C272.852 329.398 272.394 327.768 271.477 326.716C270.56 325.663 269.27 325.137 267.606 325.137C266.452 325.137 265.416 325.408 264.499 325.952C263.582 326.461 262.869 327.242 262.36 328.295C261.851 329.347 261.596 330.688 261.596 332.318V346.07H253.65V331.605C253.65 329.398 253.192 327.768 252.275 326.716C251.392 325.663 250.119 325.137 248.455 325.137C247.301 325.137 246.265 325.408 245.348 325.952C244.431 326.461 243.718 327.242 243.209 328.295C242.7 329.347 242.445 330.688 242.445 332.318V346.07H234.5V318.668H242.089V326.155L240.662 323.965C241.613 322.098 242.954 320.689 244.686 319.738C246.452 318.753 248.455 318.261 250.696 318.261C253.209 318.261 255.399 318.906 257.267 320.196C259.168 321.453 260.424 323.388 261.036 326.003L258.234 325.239C259.151 323.099 260.611 321.402 262.615 320.145C264.652 318.889 266.978 318.261 269.592 318.261Z" fill="black"/>
<path d="M214.163 346.478C211.242 346.478 208.645 345.866 206.37 344.644C204.129 343.422 202.346 341.758 201.022 339.653C199.732 337.513 199.086 335.086 199.086 332.369C199.086 329.619 199.732 327.191 201.022 325.086C202.346 322.947 204.129 321.283 206.37 320.094C208.645 318.872 211.242 318.261 214.163 318.261C217.049 318.261 219.629 318.872 221.904 320.094C224.179 321.283 225.962 322.93 227.252 325.035C228.543 327.14 229.188 329.585 229.188 332.369C229.188 335.086 228.543 337.513 227.252 339.653C225.962 341.758 224.179 343.422 221.904 344.644C219.629 345.866 217.049 346.478 214.163 346.478ZM214.163 339.958C215.487 339.958 216.675 339.653 217.728 339.041C218.781 338.43 219.612 337.564 220.224 336.444C220.835 335.289 221.14 333.931 221.14 332.369C221.14 330.773 220.835 329.415 220.224 328.295C219.612 327.174 218.781 326.308 217.728 325.697C216.675 325.086 215.487 324.78 214.163 324.78C212.838 324.78 211.65 325.086 210.597 325.697C209.545 326.308 208.696 327.174 208.051 328.295C207.439 329.415 207.134 330.773 207.134 332.369C207.134 333.931 207.439 335.289 208.051 336.444C208.696 337.564 209.545 338.43 210.597 339.041C211.65 339.653 212.838 339.958 214.163 339.958Z" fill="black"/>
<path d="M182.338 346.68C179.587 346.68 177.024 346.239 174.647 345.356C172.304 344.439 170.267 343.149 168.535 341.485C166.803 339.821 165.445 337.869 164.46 335.628C163.51 333.387 163.034 330.925 163.034 328.242C163.034 325.56 163.51 323.098 164.46 320.857C165.445 318.616 166.803 316.664 168.535 315C170.301 313.336 172.355 312.063 174.698 311.18C177.041 310.263 179.604 309.805 182.389 309.805C185.479 309.805 188.263 310.348 190.742 311.435C193.254 312.487 195.36 314.049 197.057 316.12L191.76 321.01C190.538 319.618 189.18 318.582 187.686 317.903C186.192 317.19 184.562 316.833 182.796 316.833C181.132 316.833 179.604 317.105 178.212 317.648C176.82 318.192 175.615 318.973 174.596 319.991C173.577 321.01 172.779 322.215 172.202 323.608C171.659 325 171.387 326.545 171.387 328.242C171.387 329.94 171.659 331.485 172.202 332.877C172.779 334.27 173.577 335.475 174.596 336.494C175.615 337.512 176.82 338.293 178.212 338.837C179.604 339.38 181.132 339.651 182.796 339.651C184.562 339.651 186.192 339.312 187.686 338.633C189.18 337.92 190.538 336.85 191.76 335.424L197.057 340.314C195.36 342.385 193.254 343.964 190.742 345.05C188.263 346.137 185.462 346.68 182.338 346.68Z" fill="black"/>
<path d="M145.746 346.476C143.335 346.476 141.264 345.967 139.532 344.948C137.8 343.93 136.476 342.385 135.559 340.313C134.643 338.208 134.184 335.56 134.184 332.368C134.184 329.142 134.66 326.493 135.61 324.422C136.595 322.351 137.953 320.806 139.685 319.787C141.417 318.769 143.437 318.259 145.746 318.259C148.327 318.259 150.636 318.836 152.673 319.991C154.744 321.145 156.374 322.775 157.563 324.881C158.785 326.986 159.396 329.482 159.396 332.368C159.396 335.22 158.785 337.699 157.563 339.804C156.374 341.909 154.744 343.556 152.673 344.744C150.636 345.899 148.327 346.476 145.746 346.476ZM129.549 346.069V308.276H137.495V324.218L136.986 332.317L137.138 340.466V346.069H129.549ZM144.371 339.957C145.695 339.957 146.867 339.651 147.885 339.04C148.938 338.429 149.77 337.563 150.381 336.442C151.026 335.288 151.349 333.93 151.349 332.368C151.349 330.772 151.026 329.414 150.381 328.293C149.77 327.173 148.938 326.307 147.885 325.695C146.867 325.084 145.695 324.779 144.371 324.779C143.047 324.779 141.858 325.084 140.806 325.695C139.753 326.307 138.921 327.173 138.31 328.293C137.699 329.414 137.393 330.772 137.393 332.368C137.393 333.93 137.699 335.288 138.31 336.442C138.921 337.563 139.753 338.429 140.806 339.04C141.858 339.651 143.047 339.957 144.371 339.957Z" fill="black"/>
<path d="M106.144 346.477C103.869 346.477 101.831 346.036 100.032 345.153C98.2662 344.27 96.891 342.929 95.9063 341.129C94.9216 339.296 94.4292 336.97 94.4292 334.152V318.668H102.375V332.98C102.375 335.255 102.85 336.936 103.801 338.023C104.786 339.075 106.161 339.601 107.926 339.601C109.149 339.601 110.235 339.347 111.186 338.837C112.137 338.294 112.884 337.479 113.427 336.393C113.971 335.272 114.242 333.88 114.242 332.216V318.668H122.188V346.07H114.65V338.532L116.025 340.722C115.108 342.624 113.75 344.067 111.95 345.051C110.185 346.002 108.249 346.477 106.144 346.477Z" fill="black"/>
<path d="M79.2627 346.069V308.276H87.2083V346.069H79.2627Z" fill="black"/>
<path d="M59.5312 346.68C56.7808 346.68 54.2172 346.239 51.8403 345.356C49.4974 344.439 47.46 343.149 45.7283 341.485C43.9966 339.821 42.6384 337.869 41.6537 335.628C40.7029 333.387 40.2275 330.925 40.2275 328.242C40.2275 325.56 40.7029 323.098 41.6537 320.857C42.6384 318.616 43.9966 316.664 45.7283 315C47.494 313.336 49.5483 312.063 51.8912 311.18C54.2341 310.263 56.7978 309.805 59.5821 309.805C62.6721 309.805 65.4564 310.348 67.9351 311.435C70.4478 312.487 72.5531 314.049 74.2509 316.12L68.9538 321.01C67.7314 319.618 66.3732 318.582 64.8792 317.903C63.3851 317.19 61.7553 316.833 59.9896 316.833C58.3258 316.833 56.7978 317.105 55.4056 317.648C54.0134 318.192 52.808 318.973 51.7894 319.991C50.7707 321.01 49.9727 322.215 49.3955 323.608C48.8522 325 48.5806 326.545 48.5806 328.242C48.5806 329.94 48.8522 331.485 49.3955 332.877C49.9727 334.27 50.7707 335.475 51.7894 336.494C52.808 337.512 54.0134 338.293 55.4056 338.837C56.7978 339.38 58.3258 339.651 59.9896 339.651C61.7553 339.651 63.3851 339.312 64.8792 338.633C66.3732 337.92 67.7314 336.85 68.9538 335.424L74.2509 340.314C72.5531 342.385 70.4478 343.964 67.9351 345.05C65.4564 346.137 62.6551 346.68 59.5312 346.68Z" fill="black"/>
<path fill-rule="evenodd" clip-rule="evenodd" d="M314.977 47.75C322.437 50.9523 324.075 55.6233 319.888 61.7643C319.654 64.1005 319.421 66.4353 319.187 68.7715C319.672 80.7608 319.672 92.907 319.187 105.209C316.449 105.591 314.344 104.658 312.872 102.406C312.619 88.9844 311.917 75.6708 310.767 62.4651C311.953 60.2816 311.018 58.8802 307.96 58.2608C304.64 57.4731 301.366 57.7058 298.137 58.9615C294.425 58.1094 290.682 57.4087 286.91 56.8593C285.302 53.2759 286.705 51.4077 291.12 51.2536C297.172 51.5969 303.255 51.5969 309.363 51.2536C311.269 49.9446 313.141 48.7758 314.977 47.75Z" fill="#1A1E21"/>
<path fill-rule="evenodd" clip-rule="evenodd" d="M250.423 211.718C248.234 209.398 246.83 206.595 246.213 203.31C246.213 195.836 246.213 188.361 246.213 180.887C246.938 141.373 247.407 101.665 247.616 61.7649C251.781 53.453 257.862 51.819 265.86 56.8599C270.995 62.8104 273.334 69.8176 272.877 77.8814C271.667 115.012 271.432 152.15 272.175 189.295C267.512 199.324 260.26 206.799 250.423 211.718Z" fill="#E3241E"/>
<path fill-rule="evenodd" clip-rule="evenodd" d="M112.895 50.5527C115.702 50.5527 118.508 50.5527 121.315 50.5527C121.315 52.8889 121.315 55.2237 121.315 57.5599C120.449 57.7155 119.748 58.1821 119.21 58.9613C118.914 74.4416 118.212 89.8573 117.105 105.209C115.007 104.523 113.135 103.59 111.492 102.406C110.493 87.0699 109.557 71.6541 108.685 56.1585C108.853 53.2323 110.257 51.3628 112.895 50.5527Z" fill="#1A1D21"/>
<path fill-rule="evenodd" clip-rule="evenodd" d="M194.289 60.3634C204.274 59.7678 214.097 60.4686 223.759 62.4656C230.095 71.4642 228.692 78.938 219.549 84.8885C186.938 84.6979 162.38 98.4782 145.873 126.231C138.629 143.282 136.29 161.034 138.857 179.485C141.296 190.878 145.271 201.621 150.785 211.718C150.707 215.377 149.303 218.414 146.575 220.828C142.649 223.51 138.438 224.911 133.945 225.032C128.964 220.026 124.987 214.186 122.017 207.514C101.603 150.487 116.339 104.94 166.222 70.8742C175.575 66.8843 184.931 63.3807 194.289 60.3634Z" fill="#E32A21"/>
<path fill-rule="evenodd" clip-rule="evenodd" d="M247.616 61.7637C247.407 101.664 246.938 141.372 246.213 180.886C245.657 142.109 245.422 103.336 245.511 64.5665C245.901 63.2828 246.603 62.3495 247.616 61.7637Z" fill="#EAA59D"/>
<path fill-rule="evenodd" clip-rule="evenodd" d="M209.725 101.004C217.305 99.381 223.151 101.717 227.267 108.011C228.203 146.316 228.203 184.623 227.267 222.929C219.32 226.565 211.134 226.333 202.708 222.228C202.574 184.696 202.807 146.623 203.41 108.011C204.848 104.946 206.954 102.61 209.725 101.004Z" fill="#6EBE8C"/>
<path fill-rule="evenodd" clip-rule="evenodd" d="M111.491 102.405C113.135 103.589 115.007 104.523 117.105 105.208C114.224 109.11 111.886 108.643 110.088 103.807C110.262 102.956 110.729 102.489 111.491 102.405Z" fill="#708F87"/>
<path fill-rule="evenodd" clip-rule="evenodd" d="M292.524 103.808C300.497 104.989 306.345 109.193 310.065 116.421C329.579 165.832 319.054 209.509 278.49 247.455C247.803 270.358 215.059 275.497 180.256 262.87C172.871 259.178 165.855 254.973 159.205 250.257C154.066 244.149 153.365 237.842 157.1 231.338C160.599 228.294 164.575 227.125 169.029 227.835C209.382 252.24 245.635 247.335 277.788 213.119C285.35 201.621 290.027 189.474 291.822 176.682C293.858 157.309 291.284 138.856 284.104 121.326C284.965 119.742 284.965 117.874 284.104 115.72C284.307 114.002 284.774 112.366 285.507 110.815C288.175 108.704 290.514 106.368 292.524 103.808Z" fill="#71C08E"/>
<path fill-rule="evenodd" clip-rule="evenodd" d="M166.221 123.427C170.922 123.196 175.6 123.43 180.255 124.128C181.94 125.393 183.111 127.027 183.763 129.033C184.031 156.162 184.733 183.256 185.868 210.316C185.961 212.791 184.79 214.192 182.36 214.52C173.022 208.931 165.536 201.457 159.906 192.097C158.643 174.82 158.176 157.535 158.503 140.244C159.336 133.746 161.91 128.14 166.221 123.427Z" fill="#FCDC88"/>
<path fill-rule="evenodd" clip-rule="evenodd" d="M246.213 203.31C246.831 206.595 248.234 209.397 250.423 211.718C249.987 213.089 249.051 214.024 247.617 214.521C246.241 210.897 245.774 207.159 246.213 203.31Z" fill="#EFAF98"/>
<path fill-rule="evenodd" clip-rule="evenodd" d="M111.492 222.93C113.799 222.63 115.904 223.098 117.807 224.331C118.274 236.944 118.743 249.557 119.21 262.17C127.75 263.308 136.404 264.008 145.172 264.272C149.264 264.341 150.668 265.976 149.382 269.177C147.29 270.22 145.185 271.153 143.067 271.98C136.112 272.173 129.33 271.705 122.719 270.578C115.514 275.205 110.368 273.57 107.282 265.673C108.16 264.622 108.862 263.454 109.387 262.17C110.01 248.764 110.712 235.683 111.492 222.93Z" fill="#1E2123"/>
<path fill-rule="evenodd" clip-rule="evenodd" d="M284.103 270.578C283.073 268.885 282.606 267.017 282.7 264.973C291.838 265.018 301.193 264.551 310.767 263.571C310.384 250.469 311.085 237.39 312.872 224.331C314.775 223.098 316.88 222.63 319.187 222.93C319.882 237.91 320.349 252.392 320.59 266.374C319.233 269.359 317.595 272.162 315.678 274.783C305.35 272.423 294.825 271.021 284.103 270.578Z" fill="#191B1D"/>
<path fill-rule="evenodd" clip-rule="evenodd" d="M282.7 264.973C282.606 267.017 283.074 268.885 284.104 270.578C282.58 270.41 281.644 269.475 281.297 267.776C281.357 266.492 281.825 265.557 282.7 264.973Z" fill="#747371"/>
<path fill-rule="evenodd" clip-rule="evenodd" d="M393.565 293.001C404.079 292.053 408.523 296.724 406.896 307.015C401.922 315.016 395.839 315.949 388.653 309.818C385.08 302.586 386.718 296.981 393.565 293.001ZM394.968 294.402C403.878 295.141 406.919 299.813 404.09 308.416C400.322 313.348 396.112 313.815 391.46 309.818C388.092 303.497 389.261 298.358 394.968 294.402Z" fill="#696969"/>
<path fill-rule="evenodd" clip-rule="evenodd" d="M394.968 297.205C398.006 296.667 400.345 297.602 401.985 300.008C400.734 301.536 399.331 301.536 397.775 300.008C392.49 302.126 392.257 304.462 397.073 307.015C398.298 306.686 399.468 306.218 400.581 305.614C402.281 306.698 402.281 307.866 400.581 309.117C395.49 310.962 392.216 309.326 390.758 304.212C391.551 301.397 392.954 299.061 394.968 297.205Z" fill="#464646"/>
<defs>
<filter id="filter0_d_218_2" x="0" y="0" width="445.748" height="413.915" filterUnits="userSpaceOnUse" color-interpolation-filters="sRGB">
<feFlood flood-opacity="0" result="BackgroundImageFix"/>
<feColorMatrix in="SourceAlpha" type="matrix" values="0 0 0 0 0 0 0 0 0 0 0 0 0 0 0 0 0 0 127 0" result="hardAlpha"/>
<feOffset dy="8"/>
<feGaussianBlur stdDeviation="4"/>
<feComposite in2="hardAlpha" operator="out"/>
<feColorMatrix type="matrix" values="0 0 0 0 0 0 0 0 0 0 0 0 0 0 0 0 0 0 0.5 0"/>
<feBlend mode="normal" in2="BackgroundImageFix" result="effect1_dropShadow_218_2"/>
<feBlend mode="normal" in="SourceGraphic" in2="effect1_dropShadow_218_2" result="shape"/>
</filter>
</defs>
</svg>
